<svg width="20" height="19" viewBox="0 0 20 19" fill="none" xmlns="http://www.w3.org/2000/svg">
<path fill-rule="evenodd" clip-rule="evenodd" d="M18.25 3.75H14.5V3C14.5 1.75736 13.4926 0.75 12.25 0.75H7.75C6.50736 0.75 5.5 1.75736 5.5 3V3.75H1.75C0.921573 3.75 0.25 4.42157 0.25 5.25V17.25C0.25 18.0784 0.921573 18.75 1.75 18.75H18.25C19.0784 18.75 19.75 18.0784 19.75 17.25V5.25C19.75 4.42157 19.0784 3.75 18.25 3.75ZM7 3C7 2.58579 7.33579 2.25 7.75 2.25H12.25C12.6642 2.25 13 2.58579 13 3V3.75H7V3ZM18.25 5.25V9.15094C15.7185 10.5289 12.8822 11.2505 10 11.25C7.11794 11.2505 4.28165 10.5292 1.75 9.15187V5.25H18.25ZM18.25 17.25H1.75V10.8413C4.31868 12.0977 7.1405 12.7506 10 12.75C12.8596 12.7501 15.6813 12.0969 18.25 10.8403V17.25ZM7.75 9C7.75 8.58579 8.08579 8.25 8.5 8.25H11.5C11.9142 8.25 12.25 8.58579 12.25 9C12.25 9.41421 11.9142 9.75 11.5 9.75H8.5C8.08579 9.75 7.75 9.41421 7.75 9Z" fill="#0B0B0B"/>
</svg>
