<svg xmlns="http://www.w3.org/2000/svg" version="1.1" xmlns:xlink="http://www.w3.org/1999/xlink"
    xmlns:svgjs="http://svgjs.dev/svgjs" width="1500" height="1500" viewBox="0 0 1500 1500">
    <rect width="1500" height="1500" fill="#f6f3f2"></rect>
    <g transform="matrix(0.6666666666666666,0,0,0.6666666666666666,249.39393939393938,494.40858467378166)"><svg
            viewBox="0 0 396 202" data-background-color="#f6f3f2" preserveAspectRatio="xMidYMid meet" height="765"
            width="1500" xmlns="http://www.w3.org/2000/svg" xmlns:xlink="http://www.w3.org/1999/xlink">
            <g id="tight-bounds" transform="matrix(1,0,0,1,0.2400000000000091,0.2342468546982701)"><svg
                    viewBox="0 0 395.52 201.53150629060346" height="201.53150629060346" width="395.52">
                    <g><svg viewBox="0 0 395.52 201.53150629060346" height="201.53150629060346" width="395.52">
                            <g transform="matrix(1,0,0,1,0,122.46779353277307)"><svg
                                    viewBox="0 0 395.52 79.06371275783039" height="79.06371275783039" width="395.52">
                                    <g id="textblocktransform"><svg viewBox="0 0 395.52 79.06371275783039"
                                            height="79.06371275783039" width="395.52" id="textblock">
                                            <g><svg viewBox="0 0 395.52 79.06371275783039" height="79.06371275783039"
                                                    width="395.52">
                                                    <g transform="matrix(1,0,0,1,0,0)"><svg width="395.52"
                                                            viewBox="1.3 -38.7 196.32999999999998 39.25"
                                                            height="79.06371275783039" data-palette-color="#000000">
                                                            <path
                                                                d="M11.5-19.25Q9.3-19.25 8.1-17.68 6.9-16.1 6.9-12.85 6.9-9.6 8.13-7.63 9.35-5.65 11.7-5.65L11.7-5.65Q12.9-5.65 14.05-6.4 15.2-7.15 15.8-7.9L15.8-7.9 16.35-8.7 18.85-6.1Q18.7-5.85 18.48-5.4 18.25-4.95 17.38-3.8 16.5-2.65 15.53-1.78 14.55-0.9 13-0.18 11.45 0.55 9.75 0.55L9.75 0.55Q6 0.55 3.65-2.5 1.3-5.55 1.3-10.45L1.3-10.45Q1.3-16.55 4.85-21.15 8.4-25.75 13.15-25.75L13.15-25.75Q14.6-25.75 16.05-25.33 17.5-24.9 19-24L19-24 15.5-17.85Q13.7-19.25 11.5-19.25ZM27.15 0Q24.2 0 22.32-1.88 20.45-3.75 20.45-6.93 20.45-10.1 23.35-12.43 26.25-14.75 30.4-14.75L30.4-14.75 33.8-14.75 33.8-15.6Q33.8-18.05 32.8-18.95 31.8-19.85 29.05-19.85L29.05-19.85Q27.9-19.85 26.32-19.38 24.75-18.9 22.8-17.9L22.8-17.9 21.35-21.85Q23.5-23.35 26.57-24.55 29.65-25.75 31.65-25.75L31.65-25.75Q39.5-25.75 39.5-18.15L39.5-18.15 39.5-8.35Q39.5-5.55 41.25-2.1L41.25-2.1 35.95 0.15Q34.7-2.25 34.1-4.15L34.1-4.15Q31.35 0 27.15 0L27.15 0ZM29.25-5.1L29.25-5.1Q31.25-5.1 33.8-7.15L33.8-7.15 33.8-10.5Q31.15-11.1 29.5-11.1L29.5-11.1Q26.35-11.1 26.35-8.3L26.35-8.3Q26.35-6.85 27.15-5.98 27.95-5.1 29.25-5.1ZM45.05-24.15L45.05-24.15 51.1-25.45Q51.55-21.6 51.7-18.15L51.7-18.15Q56.25-25.2 60.25-25.2L60.25-25.2 59.7-17.4Q56.8-17.4 55.12-16.88 53.45-16.35 51.7-14.8L51.7-14.8 51.7-13 52.25-1.25 45.55 0 46.15-12.15Q45.95-18.85 45.05-24.15ZM76.59-4.9L76.59-4.9Q72.69 0 69.84 0L69.84 0Q66.29 0 64.02-2.9 61.74-5.8 61.74-10.35L61.74-10.35Q61.74-16.6 65.22-20.9 68.69-25.2 73.74-25.2L73.74-25.2 76.54-24.8 76.54-25.75 75.94-37.45 82.79-38.7 82.14-13 82.14-8.6Q82.14-5.6 83.64-1.7L83.64-1.7 78.24 0.55Q76.79-2.45 76.59-4.9ZM67.34-12.95Q67.34-9.75 68.52-7.95 69.69-6.15 71.92-6.15 74.14-6.15 76.54-7.95L76.54-7.95 76.54-18.75Q73.54-19.35 72.09-19.35L72.09-19.35Q69.84-19.35 68.59-17.75 67.34-16.15 67.34-12.95ZM103.74-4.65L103.74-4.65Q106.34-4.65 106.34-6.95L106.34-6.95Q106.34-7.75 105.21-8.45 104.09-9.15 102.46-9.85 100.84-10.55 99.21-11.43 97.59-12.3 96.46-13.85 95.34-15.4 95.34-17.4L95.34-17.4Q95.34-20.75 98.29-23.25 101.24-25.75 105.09-25.75L105.09-25.75Q106.89-25.75 108.61-25.33 110.34-24.9 111.94-24L111.94-24 108.59-17.9Q108.24-18.2 107.69-18.65 107.14-19.1 105.61-19.83 104.09-20.55 102.91-20.55 101.74-20.55 101.11-20.03 100.49-19.5 100.49-18.57 100.49-17.65 102.21-16.73 103.94-15.8 105.99-15.03 108.04-14.25 109.76-12.48 111.49-10.7 111.49-8.25L111.49-8.25Q111.49-4.75 108.61-2.1 105.74 0.55 101.99 0.55L101.99 0.55Q99.59 0.55 97.51-0.5 95.44-1.55 94.54-2.6L94.54-2.6 93.64-3.65 97.59-8.25Q97.89-7.85 98.44-7.25 98.99-6.65 100.61-5.65 102.24-4.65 103.74-4.65ZM114.94-24.2L117.84-24.2 117.84-29.65 124.59-30.95 123.94-24.2 129.99-24.2 129.44-20.1 123.74-20.1 123.49-9.65Q123.49-7.3 123.94-6.53 124.39-5.75 125.59-5.75 126.79-5.75 128.79-6.3L128.79-6.3 129.09-2.75Q125.79 0 123.29 0 120.79 0 119.19-1.83 117.59-3.65 117.59-6.6L117.59-6.6 117.89-12.2 117.84-20.1 114.39-20.1 114.94-24.2ZM138.63 0Q135.68 0 133.81-1.88 131.93-3.75 131.93-6.93 131.93-10.1 134.83-12.43 137.73-14.75 141.88-14.75L141.88-14.75 145.28-14.75 145.28-15.6Q145.28-18.05 144.28-18.95 143.28-19.85 140.53-19.85L140.53-19.85Q139.38-19.85 137.81-19.38 136.23-18.9 134.28-17.9L134.28-17.9 132.83-21.85Q134.98-23.35 138.06-24.55 141.13-25.75 143.13-25.75L143.13-25.75Q150.98-25.75 150.98-18.15L150.98-18.15 150.98-8.35Q150.98-5.55 152.73-2.1L152.73-2.1 147.43 0.15Q146.18-2.25 145.58-4.15L145.58-4.15Q142.83 0 138.63 0L138.63 0ZM140.73-5.1L140.73-5.1Q142.73-5.1 145.28-7.15L145.28-7.15 145.28-10.5Q142.63-11.1 140.98-11.1L140.98-11.1Q137.83-11.1 137.83-8.3L137.83-8.3Q137.83-6.85 138.63-5.98 139.43-5.1 140.73-5.1ZM165.68-19.25Q163.48-19.25 162.28-17.68 161.08-16.1 161.08-12.85 161.08-9.6 162.31-7.63 163.53-5.65 165.88-5.65L165.88-5.65Q167.08-5.65 168.23-6.4 169.38-7.15 169.98-7.9L169.98-7.9 170.53-8.7 173.03-6.1Q172.88-5.85 172.66-5.4 172.43-4.95 171.56-3.8 170.68-2.65 169.71-1.78 168.73-0.9 167.18-0.18 165.63 0.55 163.93 0.55L163.93 0.55Q160.18 0.55 157.83-2.5 155.48-5.55 155.48-10.45L155.48-10.45Q155.48-16.55 159.03-21.15 162.58-25.75 167.33-25.75L167.33-25.75Q168.78-25.75 170.23-25.33 171.68-24.9 173.18-24L173.18-24 169.68-17.85Q167.88-19.25 165.68-19.25ZM197.63-3.3L191.93 0.5 182.53-13.35 182.53-13 183.08-1.25 176.33 0 176.93-12.15 176.33-37.45 183.18-38.7 182.53-14.55 192.53-25.5 197.23-22.3 188.48-14.1 197.63-3.3Z"
                                                                opacity="1" transform="matrix(1,0,0,1,0,0)"
                                                                fill="#000000" class="wordmark-text-0"
                                                                data-fill-palette-color="primary" id="text-0"></path>
                                                        </svg></g>
                                                </svg></g>
                                        </svg></g>
                                </svg></g>
                            <g transform="matrix(1,0,0,1,138.84857001863224,0)"><svg
                                    viewBox="0 0 117.82285996273548 103.80274847975551" height="103.80274847975551"
                                    width="117.82285996273548">
                                    <g><svg xmlns="http://www.w3.org/2000/svg"
                                            xmlns:xlink="http://www.w3.org/1999/xlink" version="1.1" x="0" y="0"
                                            viewBox="6.3 11.5 87.4 77" style="enable-background:new 0 0 100 100;"
                                            xml:space="preserve" height="103.80274847975551" width="117.82285996273548"
                                            class="icon-icon-0" data-fill-palette-color="accent" id="icon-0">
                                            <path
                                                d="M72.3 12.3L72.3 12.3 72.3 12.3l-0.4-0.8H28.2L6.3 50l21.8 38.5h43.7L93.7 50 72.3 12.3zM33.3 25.3L9.9 47.7l18.6-32.8L33.3 25.3zM70.7 14.8l6.4 35.7L36.9 25.8 70.7 14.8zM35.5 27.3l41 25.2-41 23.3V27.3zM77 54.5l-7.2 30.8-32.6-8.1L77 54.5zM33.5 75L9.9 50.5l23.6-22.7V75zM33.2 77.6l-4.6 7.7L11.5 55.1 33.2 77.6zM35 78.6l31.4 7.9H30.2L35 78.6zM79.3 53.3l11.6-2.5L72.1 84 79.3 53.3zM90.7 48.9l-11.4 2.5-5.9-33.1L90.7 48.9zM35 24.3l-5-10.8h38.2L35 24.3z"
                                                fill="#a1d5e3" data-fill-palette-color="accent"></path>
                                        </svg></g>
                                </svg></g>
                            <g></g>
                        </svg></g>
                    <defs></defs>
                </svg>
                <rect width="395.52" height="201.53150629060346" fill="none" stroke="none" visibility="hidden"></rect>
            </g>
        </svg></g>
</svg>