<svg width="18" height="23" viewBox="0 0 18 23" fill="none" xmlns="http://www.w3.org/2000/svg">
<path d="M12.7187 8.49805H14.6719C15.1899 8.49805 15.6867 8.70382 16.0529 9.0701C16.4192 9.43639 16.625 9.93317 16.625 10.4512V19.8262C16.625 20.3442 16.4192 20.841 16.0529 21.2072C15.6867 21.5735 15.1899 21.7793 14.6719 21.7793H2.95312C2.43512 21.7793 1.93834 21.5735 1.57206 21.2072C1.20578 20.841 1 20.3442 1 19.8262V10.4512C1 9.93317 1.20578 9.43639 1.57206 9.0701C1.93834 8.70382 2.43512 8.49805 2.95312 8.49805H4.90625M12.7187 5.37305L8.8125 1.4668M8.8125 1.4668L4.90625 5.37305M8.8125 1.4668V14.7969" stroke="black" stroke-width="2" stroke-linecap="round" stroke-linejoin="round"/>
</svg>
