<svg width="48" height="32" viewBox="0 0 48 32" fill="none" xmlns="http://www.w3.org/2000/svg">
<path d="M32.0383 9.94218H5.90202C2.78801 9.94218 0.253906 12.4257 0.253906 15.4775V26.3402C0.253906 29.3921 2.78801 31.8738 5.90202 31.8738H32.0383C35.1524 31.8738 37.6855 29.3912 37.6855 26.3402V15.4775C37.6855 12.4257 35.1524 9.94218 32.0383 9.94218ZM35.7415 26.3393C35.7415 28.3894 34.08 30.0559 32.0374 30.0559H5.90202C3.85946 30.0559 2.19798 28.3894 2.19798 26.3393V15.4775C2.19798 13.4275 3.85946 11.7609 5.9011 11.7609H32.0374C34.08 11.7609 35.7415 13.4275 35.7415 15.4775V26.3393ZM42.5973 10.3025V27.2139C42.5973 27.6894 42.1858 28.0738 41.6768 28.0738C41.1677 28.0738 40.7563 27.6894 40.7563 27.2147V10.3025C40.7563 8.40549 39.104 6.86278 37.0743 6.86278H8.23269C7.72366 6.86278 7.31221 6.47839 7.31221 6.00285C7.31221 5.52731 7.72366 5.14292 8.23269 5.14292H37.0743C40.1202 5.14292 42.5973 7.45699 42.5973 10.3025ZM47.3525 5.28653V22.1979C47.3525 22.6734 46.941 23.0578 46.432 23.0587C45.923 23.0587 45.5115 22.6743 45.5115 22.1988V5.28653C45.5115 3.38952 43.8592 1.84681 41.8296 1.84681H12.9879C12.4789 1.84681 12.0674 1.46242 12.0674 0.986882C12.0674 0.511342 12.4789 0.126953 12.9879 0.126953H41.8296C44.8755 0.126953 47.3525 2.44102 47.3525 5.28653ZM22.3079 17.2911C22.3079 15.2755 20.5534 13.6364 18.3958 13.6364C16.2382 13.6364 14.4828 15.2755 14.4828 17.2911C14.4828 18.8889 15.592 20.2347 17.1237 20.7309C15.7383 21.2365 14.7562 22.4593 14.7562 23.8902V27.3024H22.3079V23.8902C22.3079 22.4137 21.2576 21.1651 19.8023 20.6913C21.264 20.1607 22.3079 18.8416 22.3079 17.2911ZM18.3958 14.4955C19.5556 14.4955 20.5525 15.1224 21.0486 16.0253C20.7394 15.8912 20.4153 15.6951 20.1189 15.5068C19.5243 15.1301 19.0061 14.8034 18.5099 14.9831C18.2329 15.0811 18.0442 15.3081 17.9503 15.6573C17.757 16.371 16.2511 16.7184 15.453 16.8294C15.6905 15.5094 16.9147 14.4955 18.3958 14.4955ZM21.3874 23.8894V26.4416H15.6767V23.8894C15.6767 22.4825 16.958 21.338 18.533 21.338C20.1061 21.338 21.3874 22.4825 21.3874 23.8894ZM18.3958 20.0859C16.8954 20.0859 15.661 19.0463 15.4475 17.7005C16.1682 17.6171 18.4694 17.2464 18.8422 15.8705C18.8496 15.8447 18.857 15.8232 18.8625 15.8078C19.0337 15.8602 19.3697 16.0735 19.6026 16.2205C20.1097 16.5413 20.7099 16.9171 21.3579 17.0134C21.3681 17.1063 21.3874 17.1965 21.3874 17.2911C21.3874 18.8321 20.0453 20.0859 18.3958 20.0859Z" fill="#030104"/>
</svg>
