<svg width="20" height="20" viewBox="0 0 20 20" fill="none" xmlns="http://www.w3.org/2000/svg">
<path d="M18.9375 10.0923C18.9381 9.2176 18.81 8.34758 18.5571 7.51024L18.4498 7.15479H18.0784H14.1119H13.5222L13.6186 7.73655C13.8772 9.2964 13.8772 10.8882 13.6186 12.448L13.5222 13.0298H14.1119H18.0784H18.4498L18.5571 12.6743C18.81 11.837 18.9381 10.967 18.9375 10.0923ZM18.9375 10.0923C18.9375 10.0924 18.9375 10.0925 18.9375 10.0927L18.4375 10.0923L18.9375 10.0919C18.9375 10.092 18.9375 10.0922 18.9375 10.0923ZM9.93215 18.5155L9.72813 18.972C9.72812 18.972 9.72811 18.972 9.7281 18.972C9.6441 18.9344 9.56884 18.8798 9.50708 18.8117C8.23953 17.4456 7.31748 15.7025 6.79862 13.7854L6.62794 13.1548H7.28125H12.7188H13.3721L13.2014 13.7854C12.6825 15.7025 11.7604 17.4457 10.4929 18.8118L10.0679 18.5155C10.0465 18.525 10.0234 18.5299 10 18.5298M9.93215 18.5155C9.95349 18.525 9.97663 18.5299 10 18.5298M9.93215 18.5155C9.91081 18.506 9.89175 18.492 9.87625 18.4745L9.93215 18.5155ZM10 18.5298L9.99723 19.0298C9.99815 19.0298 9.99908 19.0298 10 19.0298C10.0009 19.0298 10.0019 19.0298 10.0028 19.0298L10 18.5298ZM1.0625 10.0923C1.06187 10.967 1.19005 11.837 1.44292 12.6743L1.55026 13.0298H1.92157H5.88813H6.47783L6.3814 12.448C6.12285 10.8882 6.12285 9.2964 6.3814 7.73655L6.47783 7.15479H5.88813H1.92157H1.55026L1.44292 7.51024C1.19005 8.34758 1.06187 9.2176 1.0625 10.0923ZM1.0625 10.0923C1.0625 10.0922 1.0625 10.092 1.0625 10.0919L1.5625 10.0923L1.0625 10.0927C1.0625 10.0925 1.0625 10.0924 1.0625 10.0923ZM5.88813 12.5298H5.38153C5.3859 12.557 5.39034 12.5843 5.39486 12.6115L5.88813 12.5298ZM5.88813 12.5298V12.0298H5.81394C5.83583 12.1968 5.86056 12.3634 5.88813 12.5298ZM5.88813 7.65479V8.15479H5.81394C5.83583 7.98782 5.86056 7.82113 5.88813 7.65479ZM5.88813 7.65479L5.39486 7.57302C5.39034 7.60027 5.3859 7.62752 5.38153 7.65479H5.88813ZM10 1.15478C9.90632 1.15466 9.81366 1.17435 9.72812 1.21258L9.72812 1.21259C9.64412 1.25013 9.56888 1.3047 9.50713 1.37281C8.23955 2.7389 7.31749 4.48207 6.79862 6.39916L6.62794 7.02979H7.28125H12.7188H13.3721L13.2014 6.39916C12.6825 4.48205 11.7604 2.73887 10.4929 1.37278C10.4311 1.30468 10.3559 1.25012 10.2719 1.21259L10.2719 1.21258C10.1863 1.17435 10.0937 1.15466 10 1.15478ZM10 1.15478C10.0009 1.15478 10.0018 1.15479 10.0028 1.15479L10 1.65479L9.99724 1.15479C9.99816 1.15479 9.99908 1.15478 10 1.15478ZM17.6472 7.02979H18.4331L18.1001 6.31792C17.5081 5.05244 16.6286 3.94278 15.5318 3.07744C14.4349 2.21209 13.151 1.615 11.7825 1.33377L10.5021 1.07065L11.2801 2.1211C12.2811 3.47275 13 5.01188 13.3942 6.64697L13.4865 7.02979H13.8803H17.6472ZM6.5369 12.6179L6.61066 13.0298H7.02907H12.9709H13.3893L13.4631 12.6179C13.7623 10.9475 13.7623 9.23711 13.4631 7.56664L13.3893 7.15479H12.9709H7.02907H6.61066L6.5369 7.56664C6.23772 9.23711 6.23772 10.9475 6.5369 12.6179ZM8.71994 2.1211L9.49788 1.07065L8.21748 1.33377C6.84897 1.615 5.56511 2.21209 4.46826 3.07744C3.37141 3.94278 2.49192 5.05244 1.89992 6.31792L1.56691 7.02979H2.35282H6.11969H6.51347L6.60576 6.64697C6.99997 5.01188 7.71895 3.47275 8.71994 2.1211ZM2.35282 13.1548H1.56691L1.89992 13.8666C2.49192 15.1321 3.37141 16.2418 4.46826 17.1071C5.56511 17.9725 6.84897 18.5696 8.21748 18.8508L9.49788 19.1139L8.71994 18.0635C7.71895 16.7118 6.99997 15.1727 6.60576 13.5376L6.51347 13.1548H6.11969H2.35282ZM10.5021 19.1139L11.7825 18.8508C13.151 18.5696 14.4349 17.9725 15.5318 17.1071C16.6286 16.2418 17.5081 15.1321 18.1001 13.8666L18.4331 13.1548H17.6472H13.8803H13.4865L13.3942 13.5376C13 15.1727 12.2811 16.7118 11.2801 18.0635L10.5021 19.1139ZM4.96515 2.55709C6.45539 1.56134 8.20743 1.02984 9.99972 1.02979C12.4024 1.03269 14.7059 1.98844 16.4049 3.68742C18.1039 5.38647 19.0597 7.69006 19.0625 10.0929C19.0624 11.8851 18.5309 13.637 17.5352 15.1271C16.5394 16.6175 15.124 17.779 13.4681 18.4649C11.8121 19.1509 9.98995 19.3303 8.232 18.9807C6.47405 18.631 4.85926 17.7679 3.59185 16.5004C2.32444 15.233 1.46132 13.6182 1.11164 11.8603C0.761959 10.1023 0.941427 8.28017 1.62735 6.62422C2.31327 4.96826 3.47483 3.55289 4.96515 2.55709Z" fill="black" stroke="black"/>
</svg>
